<svg xmlns="http://www.w3.org/2000/svg" width="32" height="32" viewBox="0 0 32 32">
  <defs>
    <linearGradient id="blueTop" x1="0%" y1="0%" x2="115%" y2="115%">
      <stop offset="0%" style="stop-color: #4f9dd8; stop-opacity: 1" />
      <stop offset="100%" style="stop-color: #2180de; stop-opacity: 1" />
    </linearGradient>
    <linearGradient id="blue" x1="0%" y1="0%" x2="100%" y2="100%">
      <stop offset="0%" style="stop-color: #4f9dd8; stop-opacity: 1" />
      <stop offset="100%" style="stop-color: #2f8dd0; stop-opacity: 1" />
    </linearGradient>
    <linearGradient id="yellow" x1="0%" y1="0%" x2="100%" y2="100%">
      <stop offset="0%" style="stop-color: #f9b738; stop-opacity: 1" />
      <stop offset="100%" style="stop-color: #f59b18; stop-opacity: 1" />
    </linearGradient>
    <linearGradient id="red" x1="0%" y1="0%" x2="100%" y2="100%">
      <stop offset="0%" style="stop-color: #df4746; stop-opacity: 1" />
      <stop offset="100%" style="stop-color: #d53332; stop-opacity: 1" />
    </linearGradient>
    <linearGradient id="green" x1="0%" y1="0%" x2="100%" y2="100%">
      <stop offset="0%" style="stop-color: #68ad6b; stop-opacity: 1" />
      <stop offset="100%" style="stop-color: #46974b; stop-opacity: 1" />
    </linearGradient>
  </defs>

  <g transform="matrix(1.0068355,0,0,1.0068355,-0.109368,-3.820981)" filter="drop-shadow(0 1px 2px rgba(0,0,0,0.075))">
    <!-- top of the top slice -->
    <ellipse cx="16" cy="9.0237827" rx="13.345942" ry="4.0037823" fill="url(#blueTop)" />

    <!-- slices -->
    <path d="m 2.654059,8.9970904 v 5.3383766 a 13.345942,4.0037824 0 0 0 26.691882,0 V 8.9970904 a 13.345942,4.0037824 0 0 1 -26.6918821,0" fill="url(#blue)" />
    <path d="m 2.654059,14.335467 v 5.338377 a 13.345942,4.0037824 0 0 0 26.691882,0 v -5.338377 a 13.345942,4.0037824 0 0 1 -26.6918821,0" fill="url(#yellow)" />
    <path d="m 2.654059,19.673844 v 5.338376 a 13.345942,4.0037824 0 0 0 26.691882,0 v -5.338376 a 13.345942,4.0037824 0 0 1 -26.6918821,0" fill="url(#red)" />
    <path d="m 2.654059,25.01222 v 5.338376 a 13.345942,4.0037824 0 0 0 26.691882,0 V 25.01222 a 13.345942,4.0037824 0 0 1 -26.6918821,0" fill="url(#green)" />
  </g>
</svg>
