<svg version="1.1" xmlns="http://www.w3.org/2000/svg" xmlns:xlink="http://www.w3.org/1999/xlink"
  x="24px" y="24px"
  viewBox="0 0 39 41.553" xml:space="preserve">
	<g transform="translate(-4.5,-3.052)">
		<path
      fill="#000000"
      d="M23.375,5.052c-2.46,0.259-4.823,1.956-6.751,3.356c-0.747,0.542-1.452,1.055-2.109,1.449
			C11.808,11.481,7.675,11.5,7.5,11.5c-0.551,0-1,0.448-1,1v8.875c0,0.011,0.018,0.767,0.247,2h16.628V5.052z"
    />
    <path
      fill="#000000"
      d="M41.5,12.5c0-0.552-0.449-1-1-1c-0.175,0-4.308-0.019-7.015-1.643c-0.657-0.395-1.363-0.907-2.109-1.449
      c-1.731-1.257-3.813-2.752-6.001-3.235v18.202h15.878c0.229-1.236,0.247-1.995,0.247-2.011V12.5z"
    />
    <path
      fill="#000000"
      d="M23.191,42.544c0.059,0.027,0.122,0.04,0.184,0.061v-17.23H7.223c0.317,1.095,0.772,2.354,1.428,3.702
      C10.569,33.024,14.65,38.563,23.191,42.544z"
    />
		<path
      fill="#000000"
      d="M39.35,29.077c0.655-1.348,1.111-2.607,1.428-3.702H25.375v16.89C33.523,38.307,37.474,32.934,39.35,29.077z"
    />
	</g>
</svg>
