<svg xmlns="http://www.w3.org/2000/svg" width="16" height="16" viewBox="1 1 16 16">
  <rect width="16" height="16" fill="none" />

  <!-- Top left blue square -->
  <rect x="1" y="1" width="1" height="1" fill="#3F95D4" opacity="0.5" />
  <rect x="2" y="1" width="1" height="1" fill="#3F95D4" />
  <rect x="3" y="1" width="1" height="1" fill="#3F95D4" />
  <rect x="4" y="1" width="1" height="1" fill="#3F95D4" />
  <rect x="5" y="1" width="1" height="1" fill="#3F95D4" />
  <rect x="6" y="1" width="1" height="1" fill="#3F95D4" />
  <rect x="7" y="1" width="1" height="1" fill="#3F95D4" opacity="0.5" />

  <rect x="1" y="2" width="1" height="1" fill="#3F95D4" />
  <rect x="2" y="2" width="1" height="1" fill="#3F95D4" />
  <rect x="3" y="2" width="1" height="1" fill="#3F95D4" />
  <rect x="4" y="2" width="1" height="1" fill="#3F95D4" />
  <rect x="5" y="2" width="1" height="1" fill="#3F95D4" />
  <rect x="6" y="2" width="1" height="1" fill="#3F95D4" />
  <rect x="7" y="2" width="1" height="1" fill="#3F95D4" />

  <rect x="1" y="3" width="1" height="1" fill="#3F95D4" />
  <rect x="2" y="3" width="1" height="1" fill="#3F95D4" />
  <rect x="3" y="3" width="1" height="1" fill="#3F95D4" />
  <rect x="4" y="3" width="1" height="1" fill="#3F95D4" />
  <rect x="5" y="3" width="1" height="1" fill="#3F95D4" />
  <rect x="6" y="3" width="1" height="1" fill="#3F95D4" />
  <rect x="7" y="3" width="1" height="1" fill="#3F95D4" />

  <rect x="1" y="4" width="1" height="1" fill="#3F95D4" />
  <rect x="2" y="4" width="1" height="1" fill="#3F95D4" />
  <rect x="3" y="4" width="1" height="1" fill="#3F95D4" />
  <rect x="4" y="4" width="1" height="1" fill="#3F95D4" />
  <rect x="5" y="4" width="1" height="1" fill="#3F95D4" />
  <rect x="6" y="4" width="1" height="1" fill="#3F95D4" />
  <rect x="7" y="4" width="1" height="1" fill="#3F95D4" />

  <rect x="1" y="5" width="1" height="1" fill="#3F95D4" />
  <rect x="2" y="5" width="1" height="1" fill="#3F95D4" />
  <rect x="3" y="5" width="1" height="1" fill="#3F95D4" />
  <rect x="4" y="5" width="1" height="1" fill="#3F95D4" />
  <rect x="5" y="5" width="1" height="1" fill="#3F95D4" />
  <rect x="6" y="5" width="1" height="1" fill="#3F95D4" />
  <rect x="7" y="5" width="1" height="1" fill="#3F95D4" />

  <rect x="1" y="6" width="1" height="1" fill="#3F95D4" />
  <rect x="2" y="6" width="1" height="1" fill="#3F95D4" />
  <rect x="3" y="6" width="1" height="1" fill="#3F95D4" />
  <rect x="4" y="6" width="1" height="1" fill="#3F95D4" />
  <rect x="5" y="6" width="1" height="1" fill="#3F95D4" />
  <rect x="6" y="6" width="1" height="1" fill="#3F95D4" />
  <rect x="7" y="6" width="1" height="1" fill="#3F95D4" />

  <rect x="1" y="7" width="1" height="1" fill="#3F95D4" opacity="0.5" />
  <rect x="2" y="7" width="1" height="1" fill="#3F95D4" />
  <rect x="3" y="7" width="1" height="1" fill="#3F95D4" />
  <rect x="4" y="7" width="1" height="1" fill="#3F95D4" />
  <rect x="5" y="7" width="1" height="1" fill="#3F95D4" />
  <rect x="6" y="7" width="1" height="1" fill="#3F95D4" />
  <rect x="7" y="7" width="1" height="1" fill="#3F95D4" opacity="0.5" />

  <!-- Top right orange square -->
  <rect x="10" y="1" width="1" height="1" fill="#F7A928" opacity="0.5" />
  <rect x="11" y="1" width="1" height="1" fill="#F7A928" />
  <rect x="12" y="1" width="1" height="1" fill="#F7A928" />
  <rect x="13" y="1" width="1" height="1" fill="#F7A928" />
  <rect x="14" y="1" width="1" height="1" fill="#F7A928" />
  <rect x="15" y="1" width="1" height="1" fill="#F7A928" />
  <rect x="16" y="1" width="1" height="1" fill="#F7A928" opacity="0.5" />

  <rect x="10" y="2" width="1" height="1" fill="#F7A928" />
  <rect x="11" y="2" width="1" height="1" fill="#F7A928" />
  <rect x="12" y="2" width="1" height="1" fill="#F7A928" />
  <rect x="13" y="2" width="1" height="1" fill="#F7A928" />
  <rect x="14" y="2" width="1" height="1" fill="#F7A928" />
  <rect x="15" y="2" width="1" height="1" fill="#F7A928" />
  <rect x="16" y="2" width="1" height="1" fill="#F7A928" />

  <rect x="10" y="3" width="1" height="1" fill="#F7A928" />
  <rect x="11" y="3" width="1" height="1" fill="#F7A928" />
  <rect x="12" y="3" width="1" height="1" fill="#F7A928" />
  <rect x="13" y="3" width="1" height="1" fill="#F7A928" />
  <rect x="14" y="3" width="1" height="1" fill="#F7A928" />
  <rect x="15" y="3" width="1" height="1" fill="#F7A928" />
  <rect x="16" y="3" width="1" height="1" fill="#F7A928" />

  <rect x="10" y="4" width="1" height="1" fill="#F7A928" />
  <rect x="11" y="4" width="1" height="1" fill="#F7A928" />
  <rect x="12" y="4" width="1" height="1" fill="#F7A928" />
  <rect x="13" y="4" width="1" height="1" fill="#F7A928" />
  <rect x="14" y="4" width="1" height="1" fill="#F7A928" />
  <rect x="15" y="4" width="1" height="1" fill="#F7A928" />
  <rect x="16" y="4" width="1" height="1" fill="#F7A928" />

  <rect x="10" y="5" width="1" height="1" fill="#F7A928" />
  <rect x="11" y="5" width="1" height="1" fill="#F7A928" />
  <rect x="12" y="5" width="1" height="1" fill="#F7A928" />
  <rect x="13" y="5" width="1" height="1" fill="#F7A928" />
  <rect x="14" y="5" width="1" height="1" fill="#F7A928" />
  <rect x="15" y="5" width="1" height="1" fill="#F7A928" />
  <rect x="16" y="5" width="1" height="1" fill="#F7A928" />

  <rect x="10" y="6" width="1" height="1" fill="#F7A928" />
  <rect x="11" y="6" width="1" height="1" fill="#F7A928" />
  <rect x="12" y="6" width="1" height="1" fill="#F7A928" />
  <rect x="13" y="6" width="1" height="1" fill="#F7A928" />
  <rect x="14" y="6" width="1" height="1" fill="#F7A928" />
  <rect x="15" y="6" width="1" height="1" fill="#F7A928" />
  <rect x="16" y="6" width="1" height="1" fill="#F7A928" />

  <rect x="10" y="7" width="1" height="1" fill="#F7A928" opacity="0.5" />
  <rect x="11" y="7" width="1" height="1" fill="#F7A928" />
  <rect x="12" y="7" width="1" height="1" fill="#F7A928" />
  <rect x="13" y="7" width="1" height="1" fill="#F7A928" />
  <rect x="14" y="7" width="1" height="1" fill="#F7A928" />
  <rect x="15" y="7" width="1" height="1" fill="#F7A928" />
  <rect x="16" y="7" width="1" height="1" fill="#F7A928" opacity="0.5" />

  <!-- Bottom left red square -->
  <rect x="1" y="10" width="1" height="1" fill="#DA3D3C" opacity="0.5" />
  <rect x="2" y="10" width="1" height="1" fill="#DA3D3C" />
  <rect x="3" y="10" width="1" height="1" fill="#DA3D3C" />
  <rect x="4" y="10" width="1" height="1" fill="#DA3D3C" />
  <rect x="5" y="10" width="1" height="1" fill="#DA3D3C" />
  <rect x="6" y="10" width="1" height="1" fill="#DA3D3C" />
  <rect x="7" y="10" width="1" height="1" fill="#DA3D3C" opacity="0.5" />

  <rect x="1" y="11" width="1" height="1" fill="#DA3D3C" />
  <rect x="2" y="11" width="1" height="1" fill="#DA3D3C" />
  <rect x="3" y="11" width="1" height="1" fill="#DA3D3C" />
  <rect x="4" y="11" width="1" height="1" fill="#DA3D3C" />
  <rect x="5" y="11" width="1" height="1" fill="#DA3D3C" />
  <rect x="6" y="11" width="1" height="1" fill="#DA3D3C" />
  <rect x="7" y="11" width="1" height="1" fill="#DA3D3C" />

  <rect x="1" y="12" width="1" height="1" fill="#DA3D3C" />
  <rect x="2" y="12" width="1" height="1" fill="#DA3D3C" />
  <rect x="3" y="12" width="1" height="1" fill="#DA3D3C" />
  <rect x="4" y="12" width="1" height="1" fill="#DA3D3C" />
  <rect x="5" y="12" width="1" height="1" fill="#DA3D3C" />
  <rect x="6" y="12" width="1" height="1" fill="#DA3D3C" />
  <rect x="7" y="12" width="1" height="1" fill="#DA3D3C" />

  <rect x="1" y="13" width="1" height="1" fill="#DA3D3C" />
  <rect x="2" y="13" width="1" height="1" fill="#DA3D3C" />
  <rect x="3" y="13" width="1" height="1" fill="#DA3D3C" />
  <rect x="4" y="13" width="1" height="1" fill="#DA3D3C" />
  <rect x="5" y="13" width="1" height="1" fill="#DA3D3C" />
  <rect x="6" y="13" width="1" height="1" fill="#DA3D3C" />
  <rect x="7" y="13" width="1" height="1" fill="#DA3D3C" />

  <rect x="1" y="14" width="1" height="1" fill="#DA3D3C" />
  <rect x="2" y="14" width="1" height="1" fill="#DA3D3C" />
  <rect x="3" y="14" width="1" height="1" fill="#DA3D3C" />
  <rect x="4" y="14" width="1" height="1" fill="#DA3D3C" />
  <rect x="5" y="14" width="1" height="1" fill="#DA3D3C" />
  <rect x="6" y="14" width="1" height="1" fill="#DA3D3C" />
  <rect x="7" y="14" width="1" height="1" fill="#DA3D3C" />

  <rect x="1" y="15" width="1" height="1" fill="#DA3D3C" />
  <rect x="2" y="15" width="1" height="1" fill="#DA3D3C" />
  <rect x="3" y="15" width="1" height="1" fill="#DA3D3C" />
  <rect x="4" y="15" width="1" height="1" fill="#DA3D3C" />
  <rect x="5" y="15" width="1" height="1" fill="#DA3D3C" />
  <rect x="6" y="15" width="1" height="1" fill="#DA3D3C" />
  <rect x="7" y="15" width="1" height="1" fill="#DA3D3C" />

  <rect x="1" y="16" width="1" height="1" fill="#DA3D3C" opacity="0.5" />
  <rect x="2" y="16" width="1" height="1" fill="#DA3D3C" />
  <rect x="3" y="16" width="1" height="1" fill="#DA3D3C" />
  <rect x="4" y="16" width="1" height="1" fill="#DA3D3C" />
  <rect x="5" y="16" width="1" height="1" fill="#DA3D3C" />
  <rect x="6" y="16" width="1" height="1" fill="#DA3D3C" />
  <rect x="7" y="16" width="1" height="1" fill="#DA3D3C" opacity="0.5" />

  <!-- Bottom right green square -->
  <rect x="10" y="10" width="1" height="1" fill="#57A25B" opacity="0" />
  <rect x="11" y="10" width="1" height="1" fill="#57A25B" opacity="0.25" />
  <rect x="12" y="10" width="1" height="1" fill="#57A25B" opacity="0.5" />
  <rect x="13" y="10" width="1" height="1" fill="#57A25B" opacity="0.75" />
  <rect x="14" y="10" width="1" height="1" fill="#57A25B" opacity="0.5" />
  <rect x="15" y="10" width="1" height="1" fill="#57A25B" opacity="0.25" />
  <rect x="16" y="10" width="1" height="1" fill="#57A25B" opacity="0" />

  <rect x="10" y="11" width="1" height="1" fill="#57A25B" opacity="0.25" />
  <rect x="11" y="11" width="1" height="1" fill="#57A25B" opacity="0.75" />
  <rect x="12" y="11" width="1" height="1" fill="#57A25B" />
  <rect x="13" y="11" width="1" height="1" fill="#57A25B" />
  <rect x="14" y="11" width="1" height="1" fill="#57A25B" />
  <rect x="15" y="11" width="1" height="1" fill="#57A25B" opacity="0.75" />
  <rect x="16" y="11" width="1" height="1" fill="#57A25B" opacity="0.25" />

  <rect x="10" y="12" width="1" height="1" fill="#57A25B" opacity="0.5" />
  <rect x="11" y="12" width="1" height="1" fill="#57A25B" />
  <rect x="12" y="12" width="1" height="1" fill="#57A25B" />
  <rect x="13" y="12" width="1" height="1" fill="#57A25B" />
  <rect x="14" y="12" width="1" height="1" fill="#57A25B" />
  <rect x="15" y="12" width="1" height="1" fill="#57A25B" />
  <rect x="16" y="12" width="1" height="1" fill="#57A25B" opacity="0.5" />

  <rect x="10" y="13" width="1" height="1" fill="#57A25B" opacity="0.75" />
  <rect x="11" y="13" width="1" height="1" fill="#57A25B" />
  <rect x="12" y="13" width="1" height="1" fill="#57A25B" />
  <rect x="13" y="13" width="1" height="1" fill="#57A25B" />
  <rect x="14" y="13" width="1" height="1" fill="#57A25B" />
  <rect x="15" y="13" width="1" height="1" fill="#57A25B" />
  <rect x="16" y="13" width="1" height="1" fill="#57A25B" opacity="0.75" />

  <rect x="10" y="14" width="1" height="1" fill="#57A25B" opacity="0.5" />
  <rect x="11" y="14" width="1" height="1" fill="#57A25B" />
  <rect x="12" y="14" width="1" height="1" fill="#57A25B" />
  <rect x="13" y="14" width="1" height="1" fill="#57A25B" />
  <rect x="14" y="14" width="1" height="1" fill="#57A25B" />
  <rect x="15" y="14" width="1" height="1" fill="#57A25B" />
  <rect x="16" y="14" width="1" height="1" fill="#57A25B" opacity="0.5" />

  <rect x="10" y="15" width="1" height="1" fill="#57A25B" opacity="0.25" />
  <rect x="11" y="15" width="1" height="1" fill="#57A25B" opacity="0.75" />
  <rect x="12" y="15" width="1" height="1" fill="#57A25B" />
  <rect x="13" y="15" width="1" height="1" fill="#57A25B" />
  <rect x="14" y="15" width="1" height="1" fill="#57A25B" />
  <rect x="15" y="15" width="1" height="1" fill="#57A25B" opacity="0.75" />
  <rect x="16" y="15" width="1" height="1" fill="#57A25B" opacity="0.25" />

  <rect x="10" y="16" width="1" height="1" fill="#57A25B" opacity="0" />
  <rect x="11" y="16" width="1" height="1" fill="#57A25B" opacity="0.25" />
  <rect x="12" y="16" width="1" height="1" fill="#57A25B" opacity="0.5" />
  <rect x="13" y="16" width="1" height="1" fill="#57A25B" opacity="0.75" />
  <rect x="14" y="16" width="1" height="1" fill="#57A25B" opacity="0.5" />
  <rect x="15" y="16" width="1" height="1" fill="#57A25B" opacity="0.25" />
  <rect x="16" y="16" width="1" height="1" fill="#57A25B" opacity="0" />
</svg>
